<?xml version="1.0" encoding="UTF-8" standalone="no"?>
<svg xmlns="http://www.w3.org/2000/svg" height="40" width="40" version="1.1">
    <defs>
        <marker style="overflow:visible" refX="0" refY="0" orient="auto">
            <path transform="matrix(-0.2,0,0,-0.2,-1.2,0)"
                  style="fill:#000080;fill-opacity:1;fill-rule:evenodd;stroke:#000080;stroke-width:1.00000003pt;stroke-opacity:1"
                  d="M 0,0 5,-5 -12.5,0 5,5 Z"/>
        </marker>
        <marker orient="auto" refY="0" refX="0" style="overflow:visible">
            <path d="M 0,0 5,-5 -12.5,0 5,5 Z"
                  style="fill:#000000;fill-opacity:1;fill-rule:evenodd;stroke:#000000;stroke-width:1.00000003pt;stroke-opacity:1"
                  transform="matrix(-0.4,0,0,-0.4,-4,0)"/>
        </marker>
        <marker orient="auto" refY="0" refX="0" style="overflow:visible">
            <path style="fill:#000000;fill-opacity:1;fill-rule:evenodd;stroke:#000000;stroke-width:0.625;stroke-linejoin:round;stroke-opacity:1"
                  d="M 8.7185878,4.0337352 -2.2072895,0.01601326 8.7185884,-4.0017078 c -1.7454984,2.3720609 -1.7354408,5.6174519 -6e-7,8.035443 z"
                  transform="matrix(-1.1,0,0,-1.1,-1.1,0)"/>
        </marker>
    </defs>
    <g>
        <g transform="matrix(0.94982777,0,0,0.94997992,-5.8140057,53.939691)" style="stroke-width:1.05273819">
            <path style="fill:#03a83a;stroke-width:0.63164288"
                  d="m 34.772625,-26.82059 -0.02364,-1.248438 -0.93906,-0.310716 c -2.940582,-0.97299 -5.02884,-3.188707 -5.868342,-6.226525 -0.15015,-0.543348 -0.182076,-0.903054 -0.186954,-2.106504 -0.0054,-1.323363 0.01422,-1.52275 0.221976,-2.262275 0.885294,-3.150968 3.180882,-5.426722 6.345534,-6.290721 0.752466,-0.205434 1.005522,-0.233108 2.134218,-0.233395 1.371732,-3.22e-4 2.12457,0.13555 3.297654,0.595277 2.498394,0.979112 4.293132,3.15877 5.087538,6.178657 0.280044,1.064589 0.313404,2.818113 0.07476,3.929793 -0.655902,3.055398 -2.385246,5.530141 -5.08788,7.280923 -0.884514,0.572994 -1.423182,0.84777 -2.40636,1.227474 -0.617436,0.238452 -2.324598,0.714348 -2.564094,0.71478 -0.03396,6e-5 -0.07237,-0.561684 -0.08537,-1.24833 z m 0.376392,-4.954909 c 0.278328,-0.251502 0.592734,-0.954762 0.642528,-1.437204 0.0519,-0.502938 -0.164868,-1.302948 -0.374886,-1.38354 -0.408612,-0.156798 -1.362648,0.527898 -1.685172,1.20942 -0.233112,0.492588 -0.273474,1.0194 -0.09856,1.286358 0.350826,0.535428 1.104414,0.696954 1.516086,0.324966 z m 3.430716,0.134784 c 0.935964,-0.259884 1.006098,-1.304226 0.149964,-2.23302 -0.188892,-0.20493 -0.53712,-0.463314 -0.773838,-0.574182 -0.416988,-0.195306 -0.435726,-0.196758 -0.601638,-0.04662 -0.385482,0.348852 -0.456198,1.378662 -0.14079,2.050176 0.217008,0.462024 0.408024,0.66918 0.738654,0.801102 0.273564,0.109146 0.244068,0.109026 0.627648,0.0024 z m -5.87958,-2.62773 c 0.689442,-0.314286 1.370688,-1.128708 1.30821,-1.563948 -0.0426,-0.296556 -0.728826,-0.52326 -1.436946,-0.474702 -0.618486,0.04242 -1.015518,0.209742 -1.429248,0.602364 -0.231156,0.219372 -0.277446,0.326022 -0.277446,0.639246 0,0.313722 0.04806,0.423984 0.29025,0.666204 0.258516,0.25851 0.340194,0.290046 0.746976,0.288378 0.256362,-0.0012 0.606534,-0.07016 0.798204,-0.157542 z m 8.833668,-0.08128 c 0.324288,-0.240522 0.45846,-0.718326 0.304914,-1.085814 -0.241392,-0.577734 -1.350498,-1.058376 -2.161584,-0.936744 -0.410688,0.06159 -0.87231,0.256158 -0.971124,0.40932 -0.09464,0.146694 0.09705,0.548292 0.456756,0.956934 0.702972,0.798618 1.777968,1.096176 2.371038,0.656304 z m -7.689414,-3.297855 c 0.14538,-0.07518 0.26397,-0.183722 0.263526,-0.241209 -0.0018,-0.210725 -0.51672,-0.996255 -0.789948,-1.204654 -0.451374,-0.344278 -1.012332,-0.560659 -1.45872,-0.562682 -0.358284,-0.0016 -0.45312,0.03721 -0.704292,0.288381 -0.232488,0.232489 -0.29025,0.357617 -0.29025,0.628752 0,1.028575 1.815354,1.693507 2.979684,1.091412 z m 1.736808,-1.925049 c 0.23397,-0.46836 0.201564,-1.313319 -0.07138,-1.86104 -0.28161,-0.565122 -0.559272,-0.785394 -0.990012,-0.785394 -0.649878,0 -1.09404,0.390069 -1.09404,0.960795 0,0.674146 0.450294,1.376863 1.136496,1.773588 0.56571,0.327062 0.82269,0.304879 1.018932,-0.08795 z m 2.554632,0.09435 c 1.166376,-0.739694 1.478544,-2.311501 0.537192,-2.704822 -0.439458,-0.183616 -0.760116,-0.15066 -1.06983,0.109947 -0.626754,0.527374 -0.865914,1.692583 -0.508866,2.479184 0.137802,0.303584 0.20445,0.362818 0.408258,0.362818 0.133962,0 0.41892,-0.11121 0.633246,-0.247127 z"/>
            <path style="fill:#93d7a5;stroke-width:0.63164288"
                  d="m 12.950441,-21.037965 c 0,-0.0647 0.330232,-1.350567 0.733848,-2.857483 0.403616,-1.506915 0.805293,-3.008755 0.892616,-3.337426 0.08732,-0.328671 0.504201,-1.884517 0.926394,-3.457435 0.422193,-1.57292 0.740655,-2.886905 0.707694,-2.919967 -0.03296,-0.03306 -1.577202,0.321215 -3.431644,0.787281 -1.854442,0.46607 -3.4005245,0.84847 -3.4357389,0.849777 -0.035215,0.0013 -0.064027,-2.005967 -0.064027,-4.46061 v -4.462985 l 0.533555,-0.51822 c 0.4556019,-0.44251 4.5091999,-4.155522 8.5947999,-7.87266 0.637221,-0.579753 1.227204,-1.090861 1.311072,-1.135795 0.142257,-0.07622 0.144561,-0.06277 0.03434,0.20041 -0.06498,0.155158 -1.257265,2.274603 -2.649525,4.709875 -1.392259,2.435274 -2.531381,4.461717 -2.531381,4.503203 0,0.04149 0.08644,0.07662 0.19208,0.07806 0.105644,0.0013 1.190895,3.22e-4 2.411668,-0.0023 1.220774,-0.0026 2.341857,0.01958 2.491295,0.04959 0.24471,0.0491 0.442872,0.312109 1.994523,2.647263 0.947549,1.426017 1.703268,2.643699 1.679375,2.705961 -0.02389,0.06227 -0.42458,0.648773 -0.890415,1.303347 -0.862325,1.21171 -2.451801,3.457831 -6.762536,9.55628 -2.45213,3.469059 -2.737997,3.848458 -2.737997,3.633845 z"/>
            <path style="fill:#4fc06e;stroke-width:0.63164288"
                  d="m 9.2863119,-36.433473 0.00673,-4.373039 1.6390971,-1.493954 c 0.901504,-0.821673 3.15006,-2.876925 4.996792,-4.567229 1.846732,-1.690302 3.39186,-3.086082 3.433618,-3.101733 0.04176,-0.01565 0.07592,0.0078 0.07592,0.0522 0,0.04436 -1.135921,2.068203 -2.524269,4.497425 -1.388349,2.429224 -2.503828,4.470041 -2.478843,4.535152 0.03713,0.09676 0.533247,0.122502 2.716349,0.140945 l 2.670923,0.02255 1.596294,2.38604 c 0.877961,1.31232 1.655885,2.455633 1.728718,2.540698 0.139347,0.162743 0.176893,0.332856 0.0684,0.309889 -0.03521,-0.0075 -0.12165,0.0096 -0.192079,0.0378 -0.350623,0.1406 -6.342083,1.597762 -6.569567,1.597762 -0.254075,0 -6.4879013,1.527358 -6.9483807,1.70243 l -0.2264284,0.08609 z"/>
            <path style="fill:#25b24b;stroke-width:0.63164288"
                  d="m 9.3191161,-36.367336 c 1.62e-5,-2.300688 0.011012,-3.229608 0.024438,-2.064267 0.013426,1.165341 0.013413,3.047722 -2.9e-5,4.18307 -0.013439,1.135347 -0.024425,0.181889 -0.024409,-2.118803 z m 0.1312049,-0.240331 v -4.209986 l 0.789661,-0.711287 c 0.849404,-0.765102 3.276772,-2.985479 6.633468,-6.067799 1.15252,-1.058314 2.149495,-1.95745 2.215499,-1.998081 0.148538,-0.09143 -0.102369,0.363584 -2.682571,4.864827 -1.135114,1.980245 -2.086819,3.711543 -2.114899,3.847332 -0.02808,0.135789 -0.699847,1.380158 -1.492814,2.765268 -0.792967,1.385107 -1.68334,2.940953 -1.978606,3.457434 -1.0538381,1.843382 -1.3010631,2.262274 -1.335167,2.262274 -0.019014,0 -0.034571,-1.894494 -0.034571,-4.209982 z"/>
            <g style="stroke-width:2.73617363" transform="matrix(-0.1651655,0,0,-0.32265369,46.825998,3.84313)">
                <path d="m 85.525391,108.11914 v 10 h 58.183589 v -10 z"
                      style="color:#000000;font-style:normal;font-variant:normal;font-weight:normal;font-stretch:normal;font-size:medium;line-height:normal;font-family:sans-serif;font-variant-ligatures:normal;font-variant-position:normal;font-variant-caps:normal;font-variant-numeric:normal;font-variant-alternates:normal;font-feature-settings:normal;text-indent:0;text-align:start;text-decoration:none;text-decoration-line:none;text-decoration-style:solid;text-decoration-color:#000000;letter-spacing:normal;word-spacing:normal;text-transform:none;writing-mode:lr-tb;direction:ltr;text-orientation:mixed;dominant-baseline:auto;baseline-shift:baseline;text-anchor:start;white-space:normal;shape-padding:0;clip-rule:nonzero;display:inline;overflow:visible;visibility:visible;opacity:1;isolation:auto;mix-blend-mode:normal;color-interpolation:sRGB;color-interpolation-filters:linearRGB;solid-color:#000000;solid-opacity:1;vector-effect:none;fill:#0066ff;fill-opacity:1;fill-rule:nonzero;stroke:none;stroke-width:27.36173439;stroke-linecap:butt;stroke-linejoin:miter;stroke-miterlimit:4;stroke-dasharray:none;stroke-dashoffset:0;stroke-opacity:1;color-rendering:auto;image-rendering:auto;shape-rendering:auto;text-rendering:auto;enable-background:accumulate"/>
                <path d="m 131.70924,113.11857 -10,10 35,-10 -35,-10 z"
                      style="fill:#000000;fill-opacity:0;fill-rule:evenodd;stroke:#0066ff;stroke-width:5.4723469pt;stroke-opacity:1"/>
            </g>
            <g transform="matrix(0.1651655,0,0,0.32265369,5.696781,-75.606189)" style="stroke-width:2.73617363">
                <path style="color:#000000;font-style:normal;font-variant:normal;font-weight:normal;font-stretch:normal;font-size:medium;line-height:normal;font-family:sans-serif;font-variant-ligatures:normal;font-variant-position:normal;font-variant-caps:normal;font-variant-numeric:normal;font-variant-alternates:normal;font-feature-settings:normal;text-indent:0;text-align:start;text-decoration:none;text-decoration-line:none;text-decoration-style:solid;text-decoration-color:#000000;letter-spacing:normal;word-spacing:normal;text-transform:none;writing-mode:lr-tb;direction:ltr;text-orientation:mixed;dominant-baseline:auto;baseline-shift:baseline;text-anchor:start;white-space:normal;shape-padding:0;clip-rule:nonzero;display:inline;overflow:visible;visibility:visible;opacity:1;isolation:auto;mix-blend-mode:normal;color-interpolation:sRGB;color-interpolation-filters:linearRGB;solid-color:#000000;solid-opacity:1;vector-effect:none;fill:#0066ff;fill-opacity:1;fill-rule:nonzero;stroke:none;stroke-width:27.36173439;stroke-linecap:butt;stroke-linejoin:miter;stroke-miterlimit:4;stroke-dasharray:none;stroke-dashoffset:0;stroke-opacity:1;color-rendering:auto;image-rendering:auto;shape-rendering:auto;text-rendering:auto;enable-background:accumulate"
                      d="m 85.525391,108.11914 v 10 h 58.183589 v -10 z"/>
                <path style="fill:#000000;fill-opacity:0;fill-rule:evenodd;stroke:#0066ff;stroke-width:5.4723469pt;stroke-opacity:1"
                      d="m 131.70924,113.11857 -10,10 35,-10 -35,-10 z"/>
            </g>
        </g>
    </g>
</svg>